<svg xmlns="http://www.w3.org/2000/svg" width="22" height="23" viewBox="0 0 22 23" fill="none">
  <g clip-path="url(#clip0_4574_488)">
    <path d="M15.6287 11.0783H16.2382L16.159 11.8232H15.5516L15.6287 11.0783ZM20.7745 6.89935V16.2315C20.7539 16.8209 20.4543 17.3477 19.928 17.6978L11.8461 22.3638C11.3805 22.6326 10.6186 22.6326 10.1531 22.3638L2.07113 17.6978C1.58063 17.3762 1.26083 16.8576 1.22461 16.2315V6.89935C1.22461 6.36173 1.60551 5.70189 2.07113 5.43311L10.1531 0.76706C10.6186 0.49822 11.3805 0.49822 11.8461 0.76706L19.928 5.43311C20.4169 5.76314 20.7556 6.33368 20.7745 6.89935ZM16.6431 14.8256L13.8229 13.1937C11.9416 16.2051 7.78682 14.7335 7.74125 11.5655C7.89297 8.12803 12.1202 7.12117 13.8227 9.93706L16.6429 8.30509C12.9675 2.39253 4.44464 5.20227 4.48293 11.5655C4.64629 18.4255 13.404 20.4486 16.6431 14.8256ZM17.3164 10.5596H16.8329L16.92 9.71777H16.3829L16.2934 10.5596H15.6824L15.7695 9.71777H15.2324L15.1429 10.5596H14.6309V11.0783H15.0877L15.0085 11.8232H14.4805V12.342H14.9533L14.8553 13.2627H15.4025L15.4979 12.342H16.1038L16.0059 13.2627H16.5531L16.6484 12.342H17.166V11.8232H16.7021L16.7792 11.0783H17.3164V10.5596Z" fill="#79E9AD"/>
  </g>
  <defs>
    <clipPath id="clip0_4574_488">
      <rect width="22" height="22" fill="white" transform="translate(0 0.56543)"/>
    </clipPath>
  </defs>
</svg>