<svg xmlns="http://www.w3.org/2000/svg" width="22" height="23" viewBox="0 0 22 23" fill="none">
  <g clip-path="url(#clip0_4574_545)">
    <path d="M8.76295 2.521C3.44782 0.848461 0.408041 2.37064 0.623949 6.84963C0.647089 7.28015 0.801454 8.17312 1.06839 9.28161C1.33533 10.39 1.71082 11.6914 2.17257 12.86C2.6343 14.0285 3.16739 15.0589 3.8323 15.6602C4.16475 15.9608 4.55904 16.1636 4.99204 16.1466C5.42504 16.1294 5.83693 15.8938 6.20733 15.4795C7.09097 14.4905 7.8155 13.7772 7.95732 13.6383C8.33921 13.8294 8.71198 13.9497 9.24062 13.955C8.78328 14.5076 8.71046 14.6878 7.9533 14.7913C7.11923 14.9052 6.32774 15.1912 6.75094 15.8828C7.05491 16.3795 9.32454 16.8932 10.6379 15.7297C10.662 19.1978 10.5422 22.0337 13.9018 21.5245C16.6333 21.1105 16.4712 19.2992 16.9712 15.4934C19.4962 15.9766 22.0491 14.3893 21.1865 13.6382C20.7453 13.2216 19.2409 14.0791 18.1033 13.5409C19.9026 11.2701 22.1056 5.54964 20.8393 3.72307C19.0379 1.63618 16.1151 1.10845 13.0959 2.00683C11.171 1.59858 9.80605 1.86567 8.76295 2.521ZM14.1652 2.3471C17.5491 1.68253 20.7991 3.20295 20.6166 5.36974C20.3738 8.25215 19.2321 10.702 17.7346 12.985C17.6981 12.9432 17.6614 12.9034 17.6235 12.8599C18.5246 11.3106 17.9815 10.2904 17.9568 8.97587C17.9448 8.33623 18.2537 6.96059 18.1495 6.682C17.5977 5.20667 16.8864 3.5835 14.1652 2.3471ZM11.4917 2.4098C14.7284 2.51105 16.533 4.40059 17.4501 6.53699C15.1359 6.33581 14.4551 7.39989 14.8877 9.01055C15.1946 10.012 15.6684 10.9499 16.221 11.7968C16.5391 12.2622 16.4516 12.4373 17.3252 13.4713C16.5442 13.6776 16.3784 14.2092 16.3875 14.8817C16.3472 15.381 16.0035 18.077 15.8319 19.002C15.5733 20.4817 14.7631 20.7558 13.7694 20.9475C11.1851 21.3207 11.2849 19.6081 11.29 14.6249C11.2364 13.9174 10.5807 13.3826 9.90136 13.5131C10.2567 12.0135 11.5385 10.9705 10.7486 7.87827C10.3208 6.30951 8.63554 6.36341 7.05416 7.14175C7.34537 4.22096 8.71784 2.38851 11.4917 2.4098ZM6.32504 10.5254C6.1577 11.6386 6.62692 12.6712 7.42226 13.3047C7.00561 13.7573 6.31849 14.3715 6.01788 14.7691C4.83088 16.339 4.06581 15.5222 2.76966 12.6514C1.40786 8.36393 0.38288 5.46867 2.23493 3.41041C3.67875 2.10754 5.82866 2.30521 8.19307 2.95872C7.60014 3.49857 7.20256 4.164 6.93613 4.82084C6.00731 7.33922 6.62703 8.57931 6.32504 10.5254ZM17.221 12.3179C16.5687 11.194 15.6906 9.66356 15.5057 8.87164C15.1813 7.59615 15.54 6.92065 17.5335 7.14154C17.5216 7.72392 17.3509 8.20254 17.3251 8.95501C17.3207 10.0543 17.7631 11.4374 17.221 12.3179ZM9.27654 13.3601C7.89769 13.358 6.72409 12.1127 6.95009 10.6086C7.08776 9.7374 7.0819 8.81828 7.01259 7.87799C8.02761 7.1947 9.90208 6.72836 10.1307 8.00316C10.8646 11.118 9.81089 11.4526 9.27654 13.3601ZM16.9431 7.54459C16.9047 7.24871 15.8353 7.38768 15.8737 7.68356C15.9646 7.99728 16.613 8.20679 16.9313 7.62429C16.9425 7.60393 16.9453 7.566 16.9431 7.54459ZM9.76249 8.02413C10.1807 7.56727 8.73433 7.32649 8.65835 7.73925C8.61275 7.97784 9.24095 8.55316 9.76249 8.02413ZM20.5263 14.1523C19.391 15.1224 17.557 15.1123 17.0264 14.8679C17.0318 14.4297 17.0149 14.1053 17.6931 13.9925C18.2088 14.3574 19.1174 14.428 20.5263 14.1523ZM7.33889 15.5698C7.57165 15.4215 8.35691 15.3505 8.84326 15.1376C9.23331 14.9669 9.46639 14.6105 9.83622 14.2202C10.1858 13.7893 10.8573 14.4068 10.5889 14.8888C9.64877 16.1464 7.96681 15.9081 7.33889 15.5698ZM0.465959 9.42746C-1.44125 2.33425 2.74443 0.124853 8.68286 1.90709C9.8657 1.25624 11.35 1.08126 13.1464 1.39878C16.3206 0.526154 19.594 1.13522 21.4622 3.55024C22.4858 5.23725 21.4766 9.46943 19.1487 13.1459C20.739 13.0744 20.8049 12.6629 21.5859 13.1877C23.114 14.6183 20.115 16.4241 17.4427 16.1819C17.4243 16.2706 17.409 16.37 17.394 16.4813C17.3343 18.5467 17.0276 19.8196 16.3564 20.7081C15.678 21.6062 14.6593 21.8921 13.8565 22.0521C10.5913 22.5296 10.1398 19.9713 10.1242 16.746C8.7055 17.3563 6.81651 16.9359 6.28041 16.2724C5.14482 17.0996 4.129 16.7318 3.40453 16.1053C2.06977 14.8359 1.28972 12.5581 0.465959 9.42746Z" fill="#79E9AD"/>
  </g>
  <defs>
    <clipPath id="clip0_4574_545">
      <rect width="22" height="22" fill="white" transform="translate(0 0.56543)"/>
    </clipPath>
  </defs>
</svg>