<svg xmlns="http://www.w3.org/2000/svg" width="22" height="23" viewBox="0 0 22 23" fill="none">
  <path d="M9.8144 2.72766L10.2553 3.62249L8.69234 4.20997L10.869 4.45988L11.5471 5.56834L11.9774 4.53646L13.85 4.33875L12.4168 3.76961L12.7705 2.86168L11.3426 3.3091L9.8144 2.72766ZM12.836 5.92809L15.8167 7.12321L19.1512 5.80112L16.1472 4.6201L12.836 5.92809ZM0.937154 9.04185L9.7091 12.727C10.5421 13.1318 11.3911 13.1078 12.4802 12.5335C15.8232 10.951 20.0127 9.3289 21.6492 8.41506C22.016 8.15508 21.9999 8.21856 21.9999 6.9529C21.9999 6.34829 21.9969 5.85452 21.9898 5.85452C21.9068 5.97501 21.7423 6.10781 21.5454 6.24551C19.9697 7.12675 16.1849 8.63424 12.7533 10.1936C11.8757 10.623 10.9971 11.0124 10.1009 10.6649C6.32728 9.04462 1.55746 7.15296 0.543741 6.6087C0.342096 6.50564 0.160414 6.35688 0.00201735 6.15481V8.42816C0.213388 8.66544 0.546215 8.86312 0.937154 9.04185ZM7.91239 7.83161L11.4071 9.29982L12.9529 7.07685L7.91239 7.83161ZM9.16293 16.2529C10.7637 17.0561 11.4154 16.8269 12.6445 16.2126C15.9701 14.6857 20.0604 13.0031 21.5595 12.2342C21.7114 12.1233 21.8586 11.9943 21.9969 11.8301C21.9969 11.8301 21.9938 9.59306 21.9868 9.59306C21.6118 10.3949 16.7793 12.0216 12.8178 13.9231C11.6805 14.4782 10.9029 14.8699 9.49345 14.1901C5.90422 12.5767 0.831657 10.7387 0.160223 10.0909L0 9.94071V12.1768L0.180376 12.3471C0.678192 12.9054 5.02734 14.3777 9.16293 16.2529ZM12.6526 19.8614C13.5434 19.4342 14.2014 19.1409 17.1086 17.8884C21.1474 16.1491 21.5847 15.9395 21.8921 15.5848L21.9989 15.4649C21.9989 15.4649 21.9959 13.2318 21.9918 13.2318C21.9848 13.2318 21.9384 13.2852 21.885 13.3517C21.621 13.6823 21.094 13.9362 16.9917 15.7017C14.3142 16.8565 13.5 17.2172 12.6193 17.6374C11.3294 18.2631 10.7631 18.3197 9.71212 17.9045L0.786 14.1267C0.468577 13.9664 0.145108 13.7397 0.071547 13.6228L0.00100854 13.516V14.6547C0.00100854 15.9596 -0.0221681 15.8629 0.328508 16.0997C0.715461 16.3597 1.28984 16.6136 5.10899 18.1987C7.77937 19.3072 8.74071 19.7113 9.21432 19.9249C10.7256 20.7208 11.4952 20.3988 12.6526 19.8614ZM5.13973 6.86318C3.32229 6.45971 3.32229 5.44555 5.13973 5.04208C6.95716 4.63861 9.24129 5.14568 9.24129 5.95263C9.24129 6.75958 6.95716 7.26666 5.13973 6.86318Z" fill="#79E9AD"/>
</svg>