<svg xmlns="http://www.w3.org/2000/svg" width="22" height="22" viewBox="0 0 22 22" fill="none">
  <g clip-path="url(#clip0_4499_87)">
    <path d="M3.20114 18.7253C-6.47946 8.22331 7.85531 -6.71653 18.8773 3.34914C19.0356 3.28819 19.5704 2.34797 20.0535 1.43376C21.6137 5.97568 22.364 9.68635 21.8278 12.7189C20.2021 21.9136 9.97132 24.368 4.21033 19.6279C4.85317 19.5829 5.13108 19.2747 5.26551 18.9463C5.4536 18.487 5.26577 18.0022 5.03459 17.8037C4.295 17.1686 3.46061 17.6116 3.27399 18.2822C3.23512 18.4219 3.24561 18.6936 3.20114 18.7253ZM19.9426 2.45361C18.4587 5.05453 15.3377 7.38268 10.842 7.50542C7.96095 7.58408 6.12073 8.14012 4.67202 9.76707C2.60711 12.086 2.89274 15.4631 4.66509 16.7978C4.84728 16.935 5.09371 17.0854 5.30386 17.099C11.5582 15.9416 15.7486 14.3586 18.7512 9.00193C17.7311 12.3692 15.3679 14.4537 13.4906 15.8204C11.7947 17.0551 7.77281 17.9358 6.50977 18.5304C6.46304 18.5936 6.52356 18.6155 6.65932 18.5981C9.28766 18.2627 11.8704 18.801 14.7696 18.5077C21.2673 17.8504 23.4645 12.1905 19.9426 2.45361Z" fill="#79E9AD"/>
  </g>
  <defs>
    <clipPath id="clip0_4499_87">
      <rect width="22" height="22" fill="white"/>
    </clipPath>
  </defs>
</svg>