<svg xmlns="http://www.w3.org/2000/svg" width="22" height="22" viewBox="0 0 22 22" fill="none">
  <path d="M13.365 2.74176C13.365 2.74176 17.644 5.18789 18.7633 9.07501C19.7725 12.5854 18.964 14.2601 18.964 14.2601C19.4798 14.8217 19.8864 15.4745 20.163 16.1851C20.4406 16.6422 20.6036 17.1595 20.6383 17.6931C20.673 18.2267 20.5784 18.7608 20.3624 19.25C20.3624 19.25 20.2964 17.8186 18.1624 17.5216C16.2071 17.2466 15.4962 19.1496 11.7645 19.0575C9.69481 19.0189 7.666 18.4745 5.85505 17.4717C4.0441 16.4689 2.50602 15.0383 1.375 13.3045C3.19963 14.3 5.58938 15.8441 8.56625 15.609C11.5431 15.3739 12.1646 14.4568 12.1646 14.4568C8.81854 11.8086 5.85686 8.70807 3.36462 5.24426C5.7035 7.20226 11.5005 11.099 11.3657 11C9.24558 8.92842 7.30578 6.67996 5.56737 4.27901C5.56737 4.27901 14.2643 11.429 14.9641 11.3836C15.2515 10.791 16.7393 7.72339 13.365 2.74176Z" fill="#79E9AD"/>
</svg>