<svg xmlns="http://www.w3.org/2000/svg" width="22" height="22" viewBox="0 0 22 22" fill="none">
  <g clip-path="url(#clip0_4479_8231)">
    <path d="M12.9208 10.9495C12.9208 9.44377 11.2903 8.49755 9.99298 9.25044C8.69563 10.0033 8.69563 11.8958 9.99298 12.6487C11.2903 13.4015 12.9208 12.4553 12.9208 10.9495ZM17.39 7.33287C18.6817 1.15867 15.84 -0.778839 11.0091 3.69035C6.46246 -0.572172 3.22466 0.771168 4.60245 7.30703C-1.75097 9.22237 -1.33002 12.8279 4.65411 14.6696C3.28494 20.6888 5.84245 22.8846 11.0091 18.3379C16.0208 22.8329 18.6807 20.7284 17.3125 14.6437C23.8398 12.4307 23.2542 9.22732 17.39 7.33287ZM16.5117 7.10036C15.4877 6.86939 14.4969 6.70126 13.4892 6.60953C12.9582 5.83319 12.3398 5.0577 11.6291 4.33618C15.5023 0.62109 17.785 1.78191 16.5117 7.10036ZM6.51412 12.1379C6.89732 12.9559 7.40107 13.7051 7.77996 14.3337C7.16299 14.2706 6.49832 14.1748 5.79079 14.0496C6.0175 13.415 6.25887 12.7777 6.51412 12.1379ZM6.46246 9.91621C6.1806 9.23964 5.9234 8.58665 5.71328 7.9787C6.44369 7.8273 7.15944 7.68984 7.77996 7.64287C7.31814 8.36835 6.87949 9.12687 6.46246 9.91621ZM7.00496 11.0529C7.63668 9.78772 8.30493 8.58683 9.0458 7.5137C10.3604 7.4381 11.661 7.4448 12.9467 7.53953C13.6677 8.54426 14.3407 9.74511 14.9875 11.0529C14.5035 12.0531 13.8162 13.2058 13.0242 14.4371C11.7017 14.5372 10.3457 14.5234 8.9683 14.4371C8.2702 13.3676 7.61458 12.2411 7.00496 11.0529ZM15.4783 12.1379C15.7292 12.7466 15.961 13.367 16.1758 13.9979C15.5128 14.1375 14.8587 14.2392 14.2125 14.3079C14.6548 13.6226 15.0744 12.8949 15.4783 12.1379ZM14.2125 7.64287C14.9169 7.73929 15.5973 7.8597 16.2533 8.00454C16.0339 8.65672 15.7845 9.29412 15.5042 9.91621C15.1043 9.12755 14.675 8.36852 14.2125 7.64287ZM12.2233 6.50619C11.4187 6.47463 10.6002 6.47564 9.76914 6.50619C10.133 6.02767 10.5385 5.5278 10.9833 5.00785C11.4168 5.47574 11.8275 5.97935 12.2233 6.50619ZM10.3633 4.33618C9.65264 5.0577 9.03423 5.80735 8.5033 6.58369C7.49557 6.67542 6.47893 6.84356 5.45495 7.07453C4.24078 1.67534 6.4902 0.62109 10.3633 4.33618ZM4.88661 13.8171C-0.495357 12.1982 -0.237022 9.6751 4.83495 8.18537C5.14521 9.12686 5.52081 10.083 5.94579 11.0012C5.53284 11.9508 5.16727 12.9261 4.88661 13.8171ZM5.55828 14.9021C6.47107 15.126 7.43837 15.2334 8.45163 15.3412C9.06131 16.2016 9.69268 17.0016 10.3633 17.6921C6.4194 21.4724 4.2208 20.0989 5.55828 14.9021ZM10.9833 17.0462C10.516 16.5623 10.0796 16.0139 9.6658 15.4187C10.5882 15.4382 11.4791 15.4403 12.3266 15.4187C11.9162 16.0011 11.4679 16.543 10.9833 17.0462ZM11.6291 17.6921C12.3487 16.9103 12.9831 16.1177 13.5408 15.3154C14.4928 15.2454 15.4572 15.0991 16.4342 14.8762C17.7837 20.4078 15.3333 21.2246 11.6291 17.6921ZM17.08 13.7654C16.8033 12.8744 16.4538 11.9508 16.0467 11.0012C16.4657 10.083 16.8258 9.15269 17.1317 8.2112C22.0831 9.70954 22.4792 12.1034 17.08 13.7654Z" fill="#79E9AD"/>
  </g>
  <defs>
    <clipPath id="clip0_4479_8231">
      <rect width="22" height="22" fill="white"/>
    </clipPath>
  </defs>
</svg>